<svg xmlns="http://www.w3.org/2000/svg">
    <symbol id="cart" viewBox="0 0 424.449 424.449">
        <g>
			<circle cx="170.241" cy="374.273" r="50.176"/>
			<path d="M316.673,324.098L316.673,324.098c-27.711,0-50.176,22.465-50.176,50.176s22.465,50.176,50.176,50.176
				c27.711,0,50.176-22.465,50.176-50.176S344.384,324.098,316.673,324.098z"/>
			<path d="M402.177,272.897H140.545l-5.12-29.696h215.04c6.326,0.019,12.017-3.843,14.336-9.728l51.2-129.024
				c3.111-7.892-0.766-16.812-8.658-19.922c-1.808-0.713-3.735-1.076-5.678-1.07H108.801L96.513,12.801
				c-1.262-7.471-7.784-12.906-15.36-12.8h-58.88c-8.483,0-15.36,6.877-15.36,15.36s6.877,15.36,15.36,15.36h46.08l44.032,260.096
				c1.262,7.471,7.784,12.906,15.36,12.8h274.432c8.483,0,15.36-6.877,15.36-15.36C417.537,279.774,410.66,272.897,402.177,272.897z
				"/>
		</g>
    </symbol>

    <symbol id="hand" viewBox="0 0 312.693 312.693">
        <g>
	        <path d="M113.461,149.395c6.324,0,12.536,1.107,18.473,3.291l46.82,17.201c16.209,5.957,24.554,23.998,18.596,40.248
		    c-4.52,12.234-16.32,20.456-29.377,20.456c-4.662,0-6.786-0.808-13.129-2.244c11.545,7.674,12.231,8.745,14.628,7.757
		    l96.078-40.256c-2.274-7.768-9.374-13.48-17.882-13.48h-6.293c0.061-0.674,0.244-1.321,0.244-2.015
		    c0-14.622-13.831-26.486-31.386-27.694c-1.452-11.426-11.21-20.772-23.849-20.304c16.4-31.334,44.019-23.986,59.194-65.924
		    c0.15-0.414,0.587-0.65,1.017-0.549c0.429,0.103,0.713,0.51,0.66,0.947c-3.86,31.986-23.891,48.928-24.231,49.246
		    c21.707,3.309,41.996-9.381,48.575-34.443c4.642-17.623-5.495-47.293-13.177-65.938c-0.888-2.154-2.99-3.559-5.321-3.556
		    c-2.33,0.004-4.428,1.416-5.309,3.574c-4.385,10.744-14.761,24.368-39.039,33.92c-20.982,9.925-22.85,35.696-11.23,51.921
		    c-4.531,2.947-17.047,14.182-21.738,27.025c-5.304-7.491-14.035-12.602-24.133-13.388c0-46.312-33.397-67.144-42.898-94.21
		    c-0.287-0.817-1.129-1.303-1.98-1.14c-0.852,0.162-1.456,0.924-1.422,1.79c1.445,36.73,33.661,39.548,33.661,94.85
		    c-8.936,2.709-16.169,8.941-19.799,16.964c-2.765-0.698-5.61-1.173-8.59-1.173c-16.626,0-30.469,11.495-34.283,26.934
		    C96.886,152.013,102.246,149.395,113.461,149.395z"/>
	        <path d="M311.064,216.419c-3.355-8.008-11.128-12.822-19.289-12.822c-2.682,0-5.416,0.525-8.048,1.626L175.52,250.554
		    c-6.088,2.553-12.89,1.778-18.156-1.724l-42.506-28.235c-3.193-2.116-4.641-6.063-3.569-9.741c1.297-4.448,5.827-7.12,10.343-6.095
		    l41.577,9.42c1.582,0.505,3.184,0.745,4.765,0.745c6.364,0,12.342-3.887,14.678-10.217c2.979-8.125-1.185-17.126-9.303-20.11
		    l-46.82-17.207c-8.171-3.009-17.229-3.126-25.593-0.194L6.273,200.362C2.52,201.678,0,205.228,0,209.212v67.946
		    c0,5.182,4.202,9.379,9.375,9.379h39.608l100.902,13.628c1.918,0.26,3.847,0.388,5.764,0.388c5.702,0,11.364-1.132,16.646-3.352
		    l127.568-53.439C310.513,239.302,315.522,227.063,311.064,216.419z"/>
        </g>

    </symbol>

    <symbol id="earth" viewBox="0 0 512.001 512.001">
	    <g>
		    <path d="M496.236,176.587C454.759,44.097,313.262-29.944,180.746,11.516C48.247,52.993-25.803,194.524,15.666,327.014l16.282-5.1
			C-6.715,198.405,62.32,66.46,185.846,27.789c59.84-18.721,123.39-13.024,178.923,16.035
			c55.558,29.076,96.464,78.032,115.194,137.864c18.721,59.831,13.032,123.373-16.035,178.923
			c-29.059,55.558-78.015,96.464-137.855,115.194c-100.157,31.344-209.943-8.239-267.045-96.276l-14.312,9.28
			c47.2,72.787,127.987,114.699,211.734,114.69c24.905,0,50.091-3.702,74.715-11.429c64.181-20.086,116.695-63.968,147.877-123.552
			C510.224,308.933,516.322,240.769,496.236,176.587z"/>
	    </g>
	    <g>
		    <path d="M206.52,119.408l4.896-16.342l-85.291-25.587c-2.985-0.904-6.252-0.085-8.478,2.141l-17.058,17.058
			c-1.987,1.987-2.866,4.827-2.354,7.591c0.512,2.763,2.354,5.092,4.921,6.235l76.762,34.116l6.926-15.591l-65.409-29.076
			l4.674-4.674L206.52,119.408z"/>
	    </g>
	    <g>
		    <path d="M285.747,68.601c0-4.708-3.813-8.529-8.529-8.529c-0.009,0-0.009,0-0.017,0c-18.764,0-36.411,7.309-49.682,20.581
			l-72.326,72.318l-29.434-7.361c-2.908-0.725-5.979,0.119-8.103,2.243l-17.058,17.058c-1.859,1.859-2.763,4.469-2.439,7.071
			c0.324,2.601,1.825,4.921,4.077,6.269l40.82,24.495l24.495,40.82c1.348,2.252,3.659,3.753,6.269,4.077
			c0.341,0.043,0.691,0.06,1.041,0.06c2.243,0,4.418-0.887,6.039-2.49l17.058-17.058c2.115-2.124,2.968-5.194,2.243-8.103
			l-7.352-29.4l73.478-72.753C278.864,104.772,285.764,87.527,285.747,68.601z M177.385,181.935
			c-2.141,2.115-3.002,5.203-2.277,8.128l7.361,29.434l-5.919,5.919l-19.967-33.28c-0.725-1.203-1.723-2.209-2.925-2.925
			l-33.28-19.967l5.919-5.919l29.434,7.361c2.908,0.725,5.979-0.119,8.103-2.243l75.738-75.738
			c7.847-7.855,17.723-12.947,28.436-14.798c-1.689,10.542-6.491,20.316-13.86,28.035L177.385,181.935z"/>
	    </g>
	    <g>
		    <path d="M268.322,220.802l-25.587-86.399l-16.359,4.845l24.043,81.18l-5.177,4.572l-28.436-65.964l-15.668,6.755l33.093,76.762
			c1.083,2.508,3.301,4.35,5.97,4.947c0.623,0.136,1.245,0.205,1.868,0.205c2.056,0,4.068-0.742,5.638-2.132l18.082-15.949
			C268.279,227.429,269.26,223.992,268.322,220.802z"/>
	    </g>
	    <g>
		    <path d="M166.604,470.286C105.86,499.071,58.208,502.79,35.896,480.487c-38.671-38.671,3.326-151.024,97.683-261.356
			l-12.964-11.088C17.124,329.053-22.681,446.046,23.828,492.547c12.99,12.981,31.336,19.455,54.091,19.455
			c26.525,0,59.038-8.793,95.986-26.304L166.604,470.286z"/>
	    </g>
	    <g>
		    <path d="M455.322,294.851c-1.484-2.772-4.375-4.503-7.523-4.503h-28.845l-23.233-46.458c-1.45-2.891-4.401-4.717-7.634-4.717
			h-85.291c-4.717,0-8.529,3.821-8.529,8.529v68.233c0,4.717,3.813,8.529,8.529,8.529h25.587v93.82c0,4.717,3.812,8.529,8.529,8.529
			h42.645c2.26,0,4.427-0.896,6.039-2.508l34.116-34.116c1.603-1.595,2.499-3.761,2.499-6.03v-31.532l32.683-49.025
			C456.635,300.992,456.806,297.623,455.322,294.851z M406.578,345.318c-0.93,1.399-1.433,3.053-1.433,4.734v30.585l-29.118,29.118
			h-30.585h-0.009v-93.82c0-4.717-3.812-8.529-8.529-8.529h-25.587v-51.174h71.491l23.233,46.458
			c1.45,2.891,4.401,4.717,7.633,4.717h18.184L406.578,345.318z"/>
	    </g>
	    <g>
		    <path d="M461.267,222.115l-31.66-55.405c-1.518-2.661-4.35-4.299-7.403-4.299h-51.174c-2.849,0-5.51,1.424-7.096,3.795
			l-14.525,21.792h-21.024v-42.645h42.645c2.269,0,4.427-0.896,6.03-2.499l31.617-31.617h39.114V94.179h-42.645
			c-2.269,0-4.427,0.896-6.03,2.499l-31.617,31.617h-47.643c-4.717,0-8.529,3.821-8.529,8.529v59.703
			c0,4.708,3.813,8.529,8.529,8.529h34.116c2.849,0,5.51-1.424,7.096-3.795l14.525-21.792h41.665l31.66,55.405
			c1.518,2.661,4.35,4.299,7.403,4.299h34.116v-17.058H461.267z"/>
	    </g>
	    <g>
		    <path d="M251.622,307.406h-47.643l-23.088-23.088c-1.595-1.604-3.77-2.499-6.03-2.499h-42.645c-4.708,0-8.529,3.813-8.529,8.529
			v59.703c0,4.717,3.821,8.529,8.529,8.529h34.116v85.291c0,3.233,1.825,6.184,4.717,7.633c1.203,0.597,2.516,0.896,3.813,0.896
			c1.808,0,3.608-0.571,5.117-1.706l34.116-25.587c2.149-1.612,3.412-4.145,3.412-6.823v-21.493l39.447-31.549
			c2.021-1.62,3.198-4.068,3.198-6.661v-42.645C260.151,311.219,256.33,307.406,251.622,307.406z M243.093,354.487l-39.447,31.549
			c-2.021,1.621-3.198,4.068-3.198,6.661v21.323l-17.058,12.794v-76.762c0-4.717-3.821-8.529-8.529-8.529h-34.116v-42.645h30.585
			l23.088,23.088c1.595,1.603,3.77,2.499,6.03,2.499h42.645V354.487z"/>
	    </g>
	    <g>
		    <path d="M79.821,183.607l-25.587-42.645c-1.535-2.567-4.316-4.137-7.309-4.137h-8.529v17.058h3.702l19.677,32.794l-20.879,20.879
			c-1.604,1.595-2.499,3.77-2.499,6.03v25.587H12.808v17.058h34.116c4.708,0,8.529-3.821,8.529-8.529v-30.585l23.088-23.088
			C81.305,191.257,81.834,186.967,79.821,183.607z"/>
        </g> 
	    <g>
		    <path d="M268.689,8.889v10.405l-27.66,6.917c-0.947,0.239-1.851,0.64-2.661,1.177L216.9,41.7l-46.748-23.378l-7.633,15.258
			l51.174,25.587c1.203,0.597,2.508,0.896,3.813,0.896c1.655,0,3.301-0.486,4.725-1.433l24.359-16.239l32.692-8.171
			c3.795-0.947,6.465-4.358,6.465-8.273V8.889H268.689z"/>
	    </g>
    </symbol>

    <symbol id="carrot" viewBox="0 0 512 512">
	<g>
		<path d="M371.624,134.341c-15.557-15.568-34.783-25.919-55.605-31.132v0.004c-32.305-8.1-62.432-3.286-89.888,12.922
			l60.635,60.643c14.211,14.211-7.47,34.952-21.211,21.211l-63.636-63.644c-14.385,14.385-40.851,58.658-51.193,76.08l51.196,51.196
			c14.211,14.211-7.47,34.952-21.211,21.211l-45.646-45.646c-11.621,20.253-24.055,42.281-45.507,81.788l27.506,27.506
			c14.211,14.211-7.47,34.952-21.211,21.211L74.692,346.53C48.36,395.613,20.182,453.834,1.653,490.19
			C-3.433,500.134,3.842,512,15.011,512c9.301,0,192.273-105.068,200.378-109.631l-33.726-33.726
			c-13.945-13.945,7.151-35.271,21.211-21.211l39.582,39.582c38.832-22.214,63.285-37.127,79.722-47.558l-55.671-55.671
			c-13.945-13.945,7.151-35.271,21.211-21.211l60.042,60.042c34.648-23.879,54.276-49.496,57.969-93.224
			C408.713,191.761,394.807,157.532,371.624,134.341z"/>
	</g>
	<g>
		<path d="M468.948,99.917c12.832-17.593,11.323-42.48-4.541-58.345c-16.04-16.055-41.353-17.432-59.004-4.043
			C401.829,16.26,383.284,0,361.019,0c-24.814,0-45,20.186-45,45v27.054c28.925,5.684,55.518,19.766,76.816,41.076
			c21.758,21.764,35.359,48.618,40.926,76.758l33.268-0.029c24.887,0,45.001-20.142,44.971-45.029
			C511.97,120.518,492.825,100.878,468.948,99.917z"/>
	</g>
    </symbol>

	<symbol id="menu-icon" viewBox="0 0 50 50">
		<g>
			 <rect class="first" x="0" y="7.3" width="50" height="3.7" rx="2" ry="2" />
  
  			 <rect class="second" x="0" y="23.15" width="50" height="3.7" rx="2" ry="2" />
			 
  			 <rect  class="third" x="0" y="39.7" width="50" height="3.7" rx="2" ry="2" />
		</g>
	</symbol>

	<symbol id="address" viewBox="-1 0 512 512.001">
		<g>
			<path d="m119.765625 204.601562c0 46.777344 38.054687 84.832032 84.832031 84.832032 11.027344 0 19.960938
				8.9375 19.960938 19.960937 0 11.027344-8.933594 19.960938-19.960938 19.960938-68.789062
				0-124.753906-55.964844-124.753906-124.753907 0-68.792968 55.964844-124.757812 124.753906-124.757812 68.792969 0 
				124.757813 55.964844 124.757813 124.757812 0 11.023438-8.9375 19.960938-19.960938 19.960938-11.023437 
				0-19.960937-8.9375-19.960937-19.960938 0-46.777343-38.058594-84.835937-84.835938-84.835937s-84.832031 
				38.058594-84.832031 84.835937zm15.683594 176.550782c-51.222657-56.089844-95.457031-104.535156-95.527344-176.746094.105469-90.695312 
				73.980469-164.484375 164.675781-164.484375 90.699219 0 164.570313 73.789063 164.675782 164.484375.015624 11.019531 
				8.949218 19.941406 19.960937 19.9375h.023437c11.023438-.011719 19.953126-8.960938 
				19.9375-19.984375-.0625-54.601563-21.371093-105.921875-60.003906-144.511719-38.632812-38.59375-89.984375-59.847656-144.59375-59.847656-54.605468 
				0-105.957031 21.253906-144.59375 59.847656-38.628906 38.589844-59.941406 89.910156-60.003906 144.554688.0390625 
				39.777344 11.085938 77.097656 33.777344 114.09375 19.644531 32.035156 45.167968 59.984375 72.191406 89.578125 
				26.492188 29.015625 53.890625 59.015625 75.769531 93.632812 3.796875 6.007813 10.269531 9.296875 16.890625 
				9.296875 3.648438 0 7.335938-.996094 10.648438-3.089844 9.316406-5.890624 12.097656-18.21875 
				6.207031-27.539062-23.765625-37.597656-52.371094-68.925781-80.035156-99.222656zm370.320312 9.578125c-3.9375 4.308593-9.328125 
				6.492187-14.734375 6.492187-4.8125 0-9.636718-1.726562-13.464844-5.226562l-2.5-2.285156v66.050781c0 31.011719-25.210937 
				56.238281-56.195312 56.238281h-112.171875c-30.984375 0-56.195313-25.226562-56.195313-56.238281v-65.136719l-1.5 1.371094c-8.136718 
				7.441406-20.761718 6.875-28.203124-1.261719-7.4375-8.136719-6.871094-20.765625 1.265624-28.203125l103.027344-94.195312c21.773438-19.902344 
				54.609375-19.902344 76.378906 0l66.011719 60.355468c.730469.578125 1.417969 1.207032 2.058594 1.878906l34.960937 31.960938c8.136719 7.4375 
				8.703126 20.066406 1.261719 28.199219zm-70.621093-37.519531-60.609376-55.410157c-6.414062-5.863281-16.085937-5.863281-22.5 0l-61.609374 
				56.320313v101.640625c0 8.996093 7.300781 16.316406 16.277343 16.316406h112.167969c8.972656 0 16.273438-7.320313 16.273438-16.316406zm0 0"/>
		</g>
	</symbol>

	<symbol id="eye" viewBox="0 0 503.456 503.456">
		<g>
			<path d="M496.72,242.352c-4.432-6.16-110.176-150.64-244.976-150.64c-22.443,0.104-44.717,3.887-65.936,11.2l10.272,30.4
				c17.905-6.224,36.709-9.467,55.664-9.6c99.984,0,186.656,97.072,211.744,128c-14.523,17.889-30.348,34.681-47.344,50.24
				c-12.617,11.577-25.979,22.314-40,32.144l-41.408-34.384c26.643-45.747,11.156-104.43-34.591-131.073
				c-35.418-20.627-80.031-16.453-111.008,10.385L74.64,84.08l-20.416,24.64l47.6,39.456c-12.561,9.238-24.616,19.146-36.112,29.68
				c-21.566,19.647-41.291,41.225-58.928,64.464L0,251.712l6.768,9.376c4.432,6.144,110.176,150.624,244.976,150.624
				c22.443-0.104,44.717-3.887,65.936-11.2l-10.272-30.4c-17.905,6.224-36.709,9.467-55.664,9.6c-99.968,0-186.64-97.04-211.728-128
				c14.545-17.875,30.362-34.676,47.328-50.272c12.617-11.577,25.979-22.314,40-32.144l41.408,34.416
				c-26.643,45.747-11.156,104.43,34.592,131.073c35.418,20.627,80.031,16.453,111.008-10.385l114.544,94.976l20.416-24.624
				l-47.648-39.504c12.547-9.232,24.591-19.129,36.08-29.648c21.642-19.62,41.392-41.23,58.992-64.544l6.72-9.36L496.72,242.352z
				 M251.744,315.712c-35.346,0-64-28.654-64-64c0.047-9.385,2.178-18.643,6.24-27.104l95.104,78.848
				C278.252,311.394,265.176,315.685,251.744,315.712z M309.504,278.816L214.4,199.968c10.836-7.938,23.912-12.229,37.344-12.256
				c35.346,0,64,28.654,64,64C315.697,261.097,313.566,270.355,309.504,278.816z"/>
			<rect x="59.744" y="379.712" width="32" height="32"/>
			<rect x="411.744" y="91.712" width="32" height="32"/>
		</g>

	</symbol>
</svg>
