<svg xmlns="http://www.w3.org/2000/svg">
    <symbol id="fire" viewBox="0 0 512.003 512.003">
        <g transform="translate(-1)">
			<path d="M241.579,285.633c-6.497,5.099-13.314,9.777-20.405,14.008c-6.287,3.746-12.336,7.868-18.12,12.336
				c-13.515,10.161-21.693,25.897-22.26,42.792c0.42,40.179,54.872,66.77,71.549,73.961l0.055,0.036
				c5.209,0.448,10.49,0.676,15.836,0.676c18.806-0.037,37.492-2.997,55.384-8.781c19.235-12.893,48.129-39.338,37.849-77.507
				c-1.398-5.464-3.372-10.773-5.885-15.827c-0.219-0.429-0.429-0.841-0.649-1.261c-3.308,4.377-7.484,8.023-12.281,10.7
				c-9.156,4.861-19.372,7.374-29.744,7.31c-5.273-0.018-10.527-0.758-15.607-2.175c-6.954-1.956-15.662-5.437-17.618-10.856
				c-0.996-2.805-0.594-5.921,1.069-8.388c11.861-17.325,22.388-34.385,20.944-52.561c-0.283-3.756-0.905-7.475-1.864-11.121
				c-4.779-17.133-14.849-32.33-28.766-43.414c0.521,10.454-0.338,20.935-2.531,31.169
				C264.103,262.323,254.618,276.002,241.579,285.633z"/>
			<path d="M166.74,194.456c-3.143,11.76-9.887,22.251-19.281,29.999l-0.959,0.959c-7.895,8.069-14.474,17.325-19.5,27.432
				c-8.023,15.333-12.245,32.375-12.345,49.71c0,47.188,31.388,88.353,77.744,110.229c-17.718-14.164-28.583-35.19-29.89-57.833
				c0.503-22.452,11.166-43.469,29.003-57.13c6.369-4.953,13.031-9.512,19.957-13.652c6.451-3.829,12.656-8.069,18.568-12.683
				c9.914-7.155,17.197-17.371,20.734-29.067c1.974-10.097,2.623-20.405,1.928-30.676c-0.101-4.587-0.192-9.183-0.101-13.78
				c0.192-5.008,4.322-8.964,9.33-8.946c2.65,0.046,5.145,1.252,6.835,3.29c0.786,0.475,1.764,0.95,2.467,1.316
				c0.868,0.448,1.544,0.822,1.855,1.014c21.784,13.624,37.639,34.952,44.419,59.734c1.206,4.578,2.01,9.257,2.385,13.972
				c0.338,20.112-6.049,39.759-18.148,55.823c0.32,0.11,0.576,0.201,0.758,0.265c10.481,2.741,21.602,1.48,31.196-3.545
				c2.714-1.499,5.062-3.573,6.872-6.086c1.014-1.69,1.764-3.518,2.22-5.437c0.503-1.627,1.014-3.262,1.672-4.916
				c0,0,0,0.018,0.009-0.027c1.27-3.162,4.194-5.355,7.584-5.693c3.39-0.338,6.689,1.243,8.553,4.094
				c0.567,0.658,1.535,1.7,2.394,2.632c1.316,1.435,2.44,2.723,2.677,3.061c2.33,3.335,4.395,6.835,6.177,10.49
				c3.098,6.195,5.537,12.711,7.265,19.418c5.3,19.308,2.787,39.923-7.009,57.376c3.518-2.677,6.945-5.455,10.17-8.416
				c23.904-21.574,37.968-51.976,38.927-84.159c0.384-7.1,0.347-14.2-0.119-21.291c-0.841-30.858-9.046-61.068-23.941-88.107
				c-18.001-27.596-39.366-52.835-63.608-75.149c-23.411-23.512-36.615-52.396-35.473-77.47
				c0.503-12.263,4.752-24.078,12.181-33.828c-0.503-0.174-1.023-0.356-1.563-0.539c-4.075-1.416-7.685-2.668-8.681-2.961
				c-16.64-4.569-34.139-5.108-51.035-1.581c-20.103,4.103-37.584,16.375-48.266,33.892c-12.839,23.63-15.772,51.382-8.178,77.169
				c0.786,3.052-0.055,6.305-2.23,8.59c-2.175,2.294-5.382,3.29-8.471,2.65c-38.297-7.95-60.209,2.504-72.024,13.14
				c7.31,1.407,14.511,3.381,21.529,5.894C156.359,154.287,170.258,174.234,166.74,194.456z"/>
			<path d="M17.374,457.625c-0.585,0.009-1.161,0.055-1.736,0.146l-0.512,0.091c-3.737,0.85-7.009,3.116-9.11,6.323
				c-4.432,7.064-5.967,15.562-4.286,23.722c2.559,14.666,13.094,25.604,23.082,23.914c3.829-0.804,7.173-3.098,9.302-6.378
				c4.432-7.064,5.967-15.562,4.286-23.722C36.024,468.07,26.685,457.625,17.374,457.625z"/>
			<path d="M498.899,457.872l-0.777-0.11c-0.493-0.073-0.996-0.119-1.489-0.128c-9.311,0-18.641,10.435-21.026,24.096
				c-1.681,8.169-0.146,16.667,4.286,23.722c2.129,3.281,5.474,5.574,9.302,6.378c9.997,1.69,20.523-9.257,23.082-23.923
				c1.681-8.169,0.146-16.667-4.277-23.722C505.898,460.988,502.636,458.722,498.899,457.872z"/>
			<path d="M497.026,431.29l1.846-0.274c3.737-0.832,7-3.098,9.083-6.314c4.45-7.063,6.004-15.58,4.34-23.758
				c-2.595-14.602-13.149-25.54-23.146-23.877l-85.374,14.556c-2.878,3.153-5.894,6.241-9.12,9.202
				c-13.606,12.327-29.104,22.378-45.908,29.771c-0.365,0.192-0.758,0.356-1.151,0.493c-5.602,2.458-11.349,4.651-17.234,6.588
				c-0.603,0.265-1.234,0.475-1.882,0.603c-19.473,6.223-39.795,9.412-60.236,9.458c-29.049,0.091-57.751-6.278-84.022-18.669
				L44.257,452.901c6.323,7.292,10.527,16.174,12.144,25.686c1.727,9.494,0.832,19.281-2.595,28.3l200.895-34.249
				c0.201-0.046,0.402-0.064,0.612-0.101l216.675-36.935c0.119-0.037,0.247-0.037,0.366-0.064l24.444-4.167
				C496.88,431.354,496.944,431.299,497.026,431.29z"/>
			<path d="M137.234,396.265L24.848,377.057c-9.951-1.709-20.551,9.284-23.146,23.932c-1.654,8.169-0.101,16.658,4.359,23.713
				c2.129,3.262,5.464,5.547,9.275,6.351l0.082,0.009l1.544,0.219l22.826,3.893l119.586-20.414
				C151.462,409.259,144.051,403.072,137.234,396.265z"/>
			<path d="M311.455,481.484l148.736,25.394c-6.506-17.563-3.545-37.227,7.831-52.104L311.455,481.484z"/>
		</g>

    </symbol>

    <symbol id="twitter" viewBox="0 0 32 32">
        <g>
			<path d="M16-0.034c-8.841 0-16.035 7.192-16.035 16.034s7.194 16.034 16.035 16.034 16.035-7.192 16.035-16.034-7.194-16.034-16.035-16.034zM16 30.966c-8.252 0-14.965-6.714-14.965-14.966s6.713-14.966 14.965-14.966 14.965 6.714 14.965 14.966-6.713 14.966-14.965 14.966zM24.794 11.046c0.11-0.204 0.202-0.419 0.273-0.643 0.067-0.212-0.002-0.442-0.176-0.581-0.173-0.138-0.415-0.154-0.605-0.042-0.513 0.305-1.065 0.53-1.646 0.673-0.698-0.631-1.615-0.987-2.562-0.987-2.105 0-3.817 1.712-3.817 3.815 0 0.053 0.001 0.105 0.003 0.158-2.235-0.279-4.298-1.415-5.735-3.178-0.11-0.136-0.28-0.207-0.456-0.195-0.175 0.014-0.332 0.112-0.42 0.265-0.338 0.58-0.517 1.243-0.517 1.919 0 0.64 0.159 1.256 0.451 1.802-0.074 0.012-0.147 0.039-0.214 0.078-0.163 0.097-0.264 0.292-0.264 0.481 0 1.135 0.505 2.177 1.319 2.885-0.012 0.011-0.023 0.023-0.035 0.035-0.125 0.142-0.166 0.338-0.108 0.518 0.351 1.094 1.164 1.946 2.184 2.365-1.041 0.515-2.25 0.716-3.406 0.579-0.244-0.022-0.481 0.116-0.566 0.352-0.083 0.234 0.005 0.495 0.215 0.63 1.592 1.020 3.431 1.559 5.319 1.559 6.18 0 9.874-5.020 9.874-9.873 0-0.055 0-0.109-0.001-0.164 0.597-0.466 1.115-1.023 1.541-1.66 0.132-0.197 0.118-0.459-0.035-0.641-0.151-0.179-0.4-0.241-0.616-0.15zM23.049 12.801c-0.147 0.106-0.231 0.279-0.222 0.461 0.006 0.132 0.009 0.266 0.009 0.398 0 4.328-3.293 8.805-8.804 8.805-0.989 0-1.964-0.166-2.887-0.488 1.105-0.211 2.141-0.682 3.045-1.39 0.178-0.14 0.249-0.376 0.177-0.591-0.072-0.214-0.271-0.36-0.497-0.364-0.891-0.018-1.699-0.461-2.194-1.162 0.253-0.017 0.501-0.059 0.742-0.124 0.239-0.065 0.401-0.286 0.393-0.534s-0.186-0.457-0.429-0.506c-1.003-0.201-1.79-0.943-2.081-1.905 0.266 0.067 0.539 0.106 0.812 0.115 0.235-0.001 0.453-0.145 0.526-0.371s-0.013-0.475-0.212-0.607c-0.765-0.512-1.222-1.366-1.222-2.287 0-0.223 0.027-0.443 0.079-0.658 1.731 1.775 4.080 2.847 6.568 2.972 0.176 0.001 0.33-0.062 0.437-0.191s0.148-0.3 0.11-0.464c-0.047-0.203-0.071-0.414-0.071-0.627 0-1.515 1.233-2.747 2.748-2.747 0.757 0 1.488 0.316 2.005 0.868 0.126 0.135 0.312 0.194 0.494 0.159 0.165-0.033 0.328-0.071 0.489-0.115-0.072 0.054-0.147 0.104-0.226 0.151-0.216 0.129-0.312 0.393-0.231 0.631s0.324 0.394 0.569 0.357c0.061-0.007 0.121-0.015 0.182-0.023-0.099 0.082-0.203 0.161-0.309 0.237z"/>
		</g>
	</symbol>

    <symbol id="facebook" viewBox="0 0 32 32">
	    <g>
			<path d="M16-0.034c-8.841 0-16.035 7.192-16.035 16.034s7.194 16.034 16.035 16.034 16.035-7.192 16.035-16.034-7.194-16.034-16.035-16.034zM16 30.966c-8.252 0-14.965-6.714-14.965-14.966s6.713-14.966 14.965-14.966 14.965 6.714 14.965 14.966-6.713 14.966-14.965 14.966zM19.5 7h-2.668c-3.398-0.034-3.832 2.069-3.832 4.345v1.655h-1.5c-0.295-0.034-0.535 0.205-0.5 0.5v3c-0.035 0.295 0.205 0.534 0.5 0.5h1.5v7.5c-0.031 0.295 0.208 0.534 0.503 0.5h3.055c0.295 0.034 0.534-0.205 0.44-0.5l0.002-7.5h2.5c0.295 0.034 0.535-0.205 0.5-0.5v-3c0.035-0.295-0.205-0.534-0.5-0.5h-2.503l0.003-1.5c0.097-0.639 0.097-0.535 0.69-0.5h1.789c0.139-0.031 0.287-0.014 0.391-0.115s0.164-0.239 0.129-0.385v-3c0.036-0.295-0.204-0.534-0.499-0.5zM18.965 9.944l-1.254-0.048c-1.553 0-1.683 0.843-1.683 1.706l-0.004 1.896c0 0.142 0.056 0.278 0.156 0.379s0.236 0.156 0.378 0.156h2.442v1.932h-2.44c-0.295 0-0.534 0.239-0.535 0.534l-0.001 7.501h-2.024v-7.5c0-0.295-0.201-0.534-0.497-0.534h-1.503v-1.932h1.503c0.142 0 0.278-0.056 0.378-0.156s0.118-0.237 0.118-0.379v-2.155c0-2.242 0.453-3.31 2.832-3.31h2.133v1.91z"/>
	    </g>
    </symbol>

    <symbol id="google" viewBox="0 0 32 32">
		<g>
			<path d="M16-0.034c-8.842 0-16.034 7.192-16.034 16.034s7.192 16.034 16.034 16.034 16.034-7.192 16.034-16.034-7.192-16.034-16.034-16.034zM16 30.966c-8.252 0-14.966-6.714-14.966-14.966s6.714-14.966 14.966-14.966 14.966 6.714 14.966 14.966-6.714 14.966-14.966 14.966zM18.034 9.562c0-0.295-0.239-0.534-0.534-0.534h-4.26c-0.026 0-0.047 0.011-0.072 0.015-0.057-0.002-0.11-0.015-0.168-0.015-2.225 0-4.034 1.543-4.034 3.44s1.81 3.44 4.034 3.44c0.307 0 0.603-0.035 0.891-0.091-0.075 0.291-0.116 0.625-0.066 0.998 0.047 0.349 0.186 0.683 0.368 1.008-0.371-0.065-0.753-0.109-1.151-0.109-2.752 0-4.991 1.655-4.991 3.69s2.239 3.69 4.991 3.69c2.753 0 4.992-1.655 4.992-3.69 0-1.046-0.598-1.987-1.547-2.659-0.038-0.096-0.095-0.185-0.187-0.247-0.848-0.574-1.323-1.184-1.413-1.812-0.1-0.699 0.312-1.21 0.333-1.236 0.045-0.053 0.076-0.113 0.097-0.175 1.036-0.623 1.718-1.647 1.718-2.808 0-0.921-0.432-1.754-1.125-2.372h1.59c0.295 0.002 0.534-0.238 0.534-0.533zM13.042 24.028c-2.163 0-3.923-1.177-3.923-2.622s1.76-2.622 3.923-2.622 3.924 1.177 3.924 2.622-1.761 2.622-3.924 2.622zM13 14.841c-1.635 0-2.966-1.064-2.966-2.372s1.331-2.372 2.966-2.372 2.966 1.064 2.966 2.372-1.331 2.372-2.966 2.372zM25.312 12h-2.341v-2.375c0-0.295-0.239-0.534-0.534-0.534s-0.534 0.239-0.437 0.409v2.5h-2.438c-0.295-0.034-0.534 0.205-0.534 0.5s0.239 0.534 0.534 0.5h2.438v2.375c0 0.295 0.143 0.534 0.438 0.534s0.534-0.239 0.534-0.534v-2.375h2.341c0.295 0.034 0.534-0.205 0.534-0.5s-0.24-0.534-0.535-0.5z"/>
		</g>
    </symbol>

	<symbol id="linked" viewBox="0 0 32 32">
		<g>
			<path d="M19.515 11.952c-0.678 0-1.18 0.171-1.573 0.387-0.063-0.224-0.27-0.388-0.514-0.339h-2.984c-0.295-0.049-0.534 0.19-0.443 0.5v11c-0.091 0.28 0.148 0.52 0.443 0.5h2.984c0.295 0.020 0.534-0.22 0.534-0.515l-0.001-6.648c-0.001-0.003-0.012-0.321 0.189-0.54 0.161-0.174 0.438-0.263 0.821-0.263 0.638 0 0.922 0.261 1.028 0.845v6.606c-0.105 0.295 0.134 0.535 0.429 0.515h3.145c0.295 0.020 0.534-0.22 0.428-0.515v-6.828c0.105-3.472-2.368-4.705-4.486-4.705zM23.038 23h-2.076v-6.121c0-1.181-0.763-1.913-1.99-1.913-0.694 0-1.234 0.204-1.606 0.606-0.517 0.56-0.477 1.27-0.366 1.428v6h-2.022v-9.98h1.916v0.336c0 0.203 0.115 0.39 0.298 0.479s0.4 0.067 0.562-0.056l0.14-0.108c0.405-0.319 0.824-0.65 1.622-0.65 0.826 0 3.523 0.263 3.523 3.637v6.342zM11 6.966c-1.122 0-2.034 0.912-2.034 2.034s0.912 2.034 2.034 2.034 2.034-0.912 2.034-2.034-0.912-2.034-2.034-2.034zM11 9.966c-0.532 0-0.966-0.434-0.966-0.966s0.434-0.966 0.966-0.966 0.966 0.434 0.966 0.966-0.434 0.966-0.966 0.966zM12.428 11.951h-2.968c-0.295 0-0.534 0.239-0.46 0.549v11c-0.074 0.28 0.165 0.52 0.46 0.5h2.968c0.295 0.020 0.534-0.22 0.534-0.515v-11c0-0.295-0.239-0.534-0.534-0.534zM12 23h-2.006v-9.98h2.006v9.98zM16-0.034c-8.842 0-16.034 7.192-16.034 16.034s7.192 16.034 16.034 16.034 16.034-7.192 16.034-16.034-7.192-16.034-16.034-16.034zM16 30.966c-8.252 0-14.966-6.714-14.966-14.966s6.714-14.966 14.966-14.966 14.966 6.714 14.966 14.966-6.714 14.966-14.966 14.966z"/>
		</g>
    </symbol>

	<symbol id="left-arrow" viewBox="0 0 443.52 443.52">
		<g>
			<path d="M143.492,221.863L336.226,29.129c6.663-6.664,6.663-17.468,0-24.132c-6.665-6.662-17.468-6.662-24.132,0l-204.8,204.8
			c-6.662,6.664-6.662,17.468,0,24.132l204.8,204.8c6.78,6.548,17.584,6.36,24.132-0.42c6.387-6.614,6.387-17.099,0-23.712
			L143.492,221.863z"/>
		</g>
    </symbol>

	<symbol id="right-arrow" viewBox="0 0 443.52 443.52">
			<g>
				<path d="M336.226,209.591l-204.8-204.8c-6.78-6.548-17.584-6.36-24.132,0.42c-6.388,6.614-6.388,17.099,0,23.712l192.734,192.734
					L107.294,414.391c-6.663,6.664-6.663,17.468,0,24.132c6.665,6.663,17.468,6.663,24.132,0l204.8-204.8
					C342.889,227.058,342.889,216.255,336.226,209.591z"/>
			</g>

    </symbol>
</svg>
